<?xml version="1.0" encoding="utf-8"?>
<svg version="1.1" id="Layer_1" xmlns="http://www.w3.org/2000/svg" xmlns:xlink="http://www.w3.org/1999/xlink"  x="0px" y="0px"
	 viewBox="0 0 400 400" style="enable-background:new 0 0 400 400;" xml:space="preserve">
<g>
	<path id="Background" fill="#484848" d="M350,400H50c-27.6,0-50-22.4-50-50V50C0,22.4,22.4,0,50,0h300c27.6,0,50,22.4,50,50v300
		C400,377.6,377.6,400,350,400z"/>
</g>
<g id="Logo">
	<path id="Swoosh" fill="#F89400" d="M307,291.4c-120,57.1-194.5,9.3-242.2-19.7c-3-1.8-8,0.4-3.6,5.4c15.9,19.3,67.9,65.7,135.9,65.7
		c68,0,108.5-37.1,113.5-43.6C315.6,292.8,312.1,289.3,307,291.4z M340.7,272.8c-3.2-4.2-19.6-5-29.9-3.7
		c-10.3,1.2-25.8,7.5-24.5,11.3c0.7,1.4,2.1,0.8,9.2,0.1c7.1-0.7,27-3.2,31.2,2.2c4.2,5.5-6.4,31.5-8.3,35.7
		c-1.9,4.2,0.7,5.3,4.2,2.5c3.4-2.8,9.7-10,13.8-20.3C340.6,290.3,343.2,276,340.7,272.8z"/>
	<path id="A" fill="#FFFFFF" d="M276.6,200.7V105c0-16.4-15.9-53.6-73-53.6c-57.1,0-87.5,35.7-87.5,67.8l47.7,4.3
		c0,0,10.6-32.1,35.3-32.1s23,20,23,24.3v20.8c-31.6,1.1-110.1,10.1-110.1,76.3c0,71.2,89.9,74.2,119.3,28.2
		c1.1,1.9,2.4,3.7,4.1,5.4c10.8,11.4,25.3,25,25.3,25l36.9-36.4C297.6,235,276.6,218.6,276.6,200.7z M167.4,204.1
		c0-30.6,32.8-36.8,54.7-37.5v26.3C222.1,245,167.4,237.1,167.4,204.1z"/>
</g>
</svg>
